<?xml version="1.0" encoding="utf-8"?>
<svg xmlns="http://www.w3.org/2000/svg" width="976" height="211" viewBox="0 0 976 211" fill="none">
<path d="M0.564574 105.225C0.564574 84.6613 5.10775 66.4089 14.1941 50.4679C23.4398 34.527 35.7144 22.1727 51.0177 13.4052C66.321 4.63768 82.8199 0.253916 100.514 0.253916C114.702 0.253916 127.534 2.64506 139.012 7.42735C150.649 12.0502 159.576 19.2237 165.793 28.9476H166.51V4.79709H215.289V205.653H166.51V181.503H165.793C159.576 191.227 150.649 198.48 139.012 203.262C127.534 207.885 114.702 210.196 100.514 210.196C82.8199 210.196 66.321 205.813 51.0177 197.045C35.7144 188.277 23.4398 175.923 14.1941 159.982C5.10775 144.041 0.564574 125.789 0.564574 105.225ZM53.1697 105.225C53.1697 115.906 55.6406 125.709 60.5823 134.636C65.6834 143.404 72.538 150.338 81.1461 155.439C89.9136 160.54 99.4782 163.091 109.84 163.091C120.52 163.091 130.165 160.7 138.773 155.917C147.54 151.135 154.315 144.36 159.097 135.593C164.039 126.666 166.51 116.543 166.51 105.225C166.51 93.7476 164.039 83.6251 159.097 74.8576C154.315 66.0901 147.54 59.3152 138.773 54.5329C130.165 49.7506 120.52 47.3594 109.84 47.3594C99.4782 47.3594 89.9136 49.91 81.1461 55.0111C72.538 60.1122 65.6834 67.1262 60.5823 76.0532C55.6406 84.8207 53.1697 94.5447 53.1697 105.225ZM320.126 50.4679L361.732 152.57H363.645L422.945 4.79709H478.898L458.812 52.3808L392.338 205.653H333.038L266.564 52.3808L246.479 4.79709H302.192L320.126 50.4679ZM510.043 4.79709H558.822V28.9476H559.778C565.836 19.3831 574.524 12.2096 585.842 7.42735C597.319 2.64506 609.594 0.253916 622.665 0.253916C641.157 0.253916 657.496 4.31886 671.684 12.4488C685.871 20.4192 696.871 31.6576 704.682 46.1639C712.652 60.6701 716.637 77.4081 716.637 96.3779V205.653H667.858V106.899C667.858 94.9432 665.626 84.5019 661.163 75.5749C656.859 66.648 650.642 59.7137 642.512 54.772C634.382 49.8303 624.897 47.3594 614.057 47.3594C603.536 47.3594 594.051 49.8303 585.603 54.772C577.313 59.7137 570.778 66.8871 565.995 76.2923C561.213 85.6974 558.822 96.8561 558.822 109.768V158.308V205.653H510.043V4.79709ZM926.729 52.1417V4.79709H975.508V205.653H926.729V52.1417ZM860.973 210.196C843.438 210.196 827.736 206.211 813.867 198.241C799.999 190.111 789.079 178.793 781.108 164.286C773.297 149.621 769.392 132.803 769.392 113.833V4.79709H818.171V103.551C818.171 115.348 820.403 125.789 824.866 134.875C829.33 143.802 835.627 150.737 843.756 155.678C851.886 160.62 861.212 163.091 871.733 163.091C882.254 163.091 891.659 160.62 899.948 155.678C908.238 150.737 914.773 143.563 919.556 134.158C924.338 124.753 926.729 113.594 926.729 100.682H929.12V177.677H925.773C921.628 184.691 916.128 190.669 909.274 195.61C902.579 200.552 895.086 204.218 886.797 206.61C878.508 209.001 869.9 210.196 860.973 210.196Z" fill="#3861F5"/>
</svg>